<!-- <svg xmlns="http://www.w3.org/2000/svg" viewBox="0 0 841.9 595.3">
<g fill="#61DAFB">
<path d="M666.3 296.5c0-32.5-40.7-63.3-103.1-82.4 14.4-63.6 8-114.2-20.2-130.4-6.5-3.8-14.1-5.6-22.4-5.6v22.3c4.6 0 8.3.9 11.4 2.6 13.6 7.8 19.5 37.5 14.9 75.7-1.1 9.4-2.9 19.3-5.1 29.4-19.6-4.8-41-8.5-63.5-10.9-13.5-18.5-27.5-35.3-41.6-50 32.6-30.3 63.2-46.9 84-46.9V78c-27.5 0-63.5 19.6-99.9 53.6-36.4-33.8-72.4-53.2-99.9-53.2v22.3c20.7 0 51.4 16.5 84 46.6-14 14.7-28 31.4-41.3 49.9-22.6 2.4-44 6.1-63.6 11-2.3-10-4-19.7-5.2-29-4.7-38.2 1.1-67.9 14.6-75.8 3-1.8 6.9-2.6 11.5-2.6V78.5c-8.4 0-16 1.8-22.6 5.6-28.1 16.2-34.4 66.7-19.9 130.1-62.2 19.2-102.7 49.9-102.7 82.3 0 32.5 40.7 63.3 103.1 82.4-14.4 63.6-8 114.2 20.2 130.4 6.5 3.8 14.1 5.6 22.5 5.6 27.5 0 63.5-19.6 99.9-53.6 36.4 33.8 72.4 53.2 99.9 53.2 8.4 0 16-1.8 22.6-5.6 28.1-16.2 34.4-66.7 19.9-130.1 62-19.1 102.5-49.9 102.5-82.3zm-130.2-66.7c-3.7 12.9-8.3 26.2-13.5 39.5-4.1-8-8.4-16-13.1-24-4.6-8-9.5-15.8-14.4-23.4 14.2 2.1 27.9 4.7 41 7.9zm-45.8 106.5c-7.8 13.5-15.8 26.3-24.1 38.2-14.9 1.3-30 2-45.2 2-15.1 0-30.2-.7-45-1.9-8.3-11.9-16.4-24.6-24.2-38-7.6-13.1-14.5-26.4-20.8-39.8 6.2-13.4 13.2-26.8 20.7-39.9 7.8-13.5 15.8-26.3 24.1-38.2 14.9-1.3 30-2 45.2-2 15.1 0 30.2.7 45 1.9 8.3 11.9 16.4 24.6 24.2 38 7.6 13.1 14.5 26.4 20.8 39.8-6.3 13.4-13.2 26.8-20.7 39.9zm32.3-13c5.4 13.4 10 26.8 13.8 39.8-13.1 3.2-26.9 5.9-41.2 8 4.9-7.7 9.8-15.6 14.4-23.7 4.6-8 8.9-16.1 13-24.1zM421.2 430c-9.3-9.6-18.6-20.3-27.8-32 9 .4 18.2.7 27.5.7 9.4 0 18.7-.2 27.8-.7-9 11.7-18.3 22.4-27.5 32zm-74.4-58.9c-14.2-2.1-27.9-4.7-41-7.9 3.7-12.9 8.3-26.2 13.5-39.5 4.1 8 8.4 16 13.1 24 4.7 8 9.5 15.8 14.4 23.4zM420.7 163c9.3 9.6 18.6 20.3 27.8 32-9-.4-18.2-.7-27.5-.7-9.4 0-18.7.2-27.8.7 9-11.7 18.3-22.4 27.5-32zm-74 58.9c-4.9 7.7-9.8 15.6-14.4 23.7-4.6 8-8.9 16-13 24-5.4-13.4-10-26.8-13.8-39.8 13.1-3.1 26.9-5.8 41.2-7.9zm-90.5 125.2c-35.4-15.1-58.3-34.9-58.3-50.6 0-15.7 22.9-35.6 58.3-50.6 8.6-3.7 18-7 27.7-10.1 5.7 19.6 13.2 40 22.5 60.9-9.2 20.8-16.6 41.1-22.2 60.6-9.9-3.1-19.3-6.5-28-10.2zM310 490c-13.6-7.8-19.5-37.5-14.9-75.7 1.1-9.4 2.9-19.3 5.1-29.4 19.6 4.8 41 8.5 63.5 10.9 13.5 18.5 27.5 35.3 41.6 50-32.6 30.3-63.2 46.9-84 46.9-4.5-.1-8.3-1-11.3-2.7zm237.2-76.2c4.7 38.2-1.1 67.9-14.6 75.8-3 1.8-6.9 2.6-11.5 2.6-20.7 0-51.4-16.5-84-46.6 14-14.7 28-31.4 41.3-49.9 22.6-2.4 44-6.1 63.6-11 2.3 10.1 4.1 19.8 5.2 29.1zm38.5-66.7c-8.6 3.7-18 7-27.7 10.1-5.7-19.6-13.2-40-22.5-60.9 9.2-20.8 16.6-41.1 22.2-60.6 9.9 3.1 19.3 6.5 28.1 10.2 35.4 15.1 58.3 34.9 58.3 50.6-.1 15.7-23 35.6-58.4 50.6zM320.8 78.4z"/><circle cx="420.9" cy="296.5" r="45.7"/>
<path d="M520.5 78.1z"/>
</g>
</svg> -->

<svg xmlns="http://www.w3.org/2000/svg" xlink="http://www.w3.org/1999/xlink" viewBox="0 0 841.9 595.3">
<g fill="gold" fill-rule="none" stroke="red" stroke-width="1" stroke-linecap="butt" stroke-linejoin="miter" stroke-miterlimit="10" stroke-dasharray="" stroke-dashoffset="0" font-family="none" font-weight="none" font-size="none" text-anchor="none" >
            <g data-paper-data="{&quot;isGlobalGroup&quot;:true,&quot;bounds&quot;:{&quot;x&quot;:65.00000000000003,&quot;y&quot;:177.92634871828722,&quot;width&quot;:420,&quot;height&quot;:114.14730256342563}}"><g data-paper-data="{&quot;isSecondaryText&quot;:true}" fill-rule="nonzero"><path d="M196.326,280.67986h-2.14925v-9.21018h2.14925z" data-paper-data="{&quot;glyphName&quot;:&quot;I&quot;,&quot;glyphIndex&quot;:0,&quot;firstGlyphOfWord&quot;:true,&quot;word&quot;:1}"></path><path d="M205.56837,276.46985c0.08428,0.16014 0.16541,0.3266 0.24337,0.49939c0.07796,0.17278 0.15277,0.34978 0.22441,0.53099c0.07164,-0.18543 0.1475,-0.36558 0.22757,-0.54047c0.08007,-0.17489 0.16225,-0.34451 0.24653,-0.50887l2.36418,-4.6525c0.04214,-0.08007 0.08534,-0.14223 0.12959,-0.18648c0.04425,-0.04425 0.09377,-0.07691 0.14855,-0.09798c0.05478,-0.02107 0.11694,-0.03371 0.18648,-0.03793c0.06953,-0.00421 0.15066,-0.00632 0.24337,-0.00632h1.6309v9.21018h-1.88376v-5.29728c0,-0.25707 0.01264,-0.53521 0.03793,-0.83442l-2.44004,4.73468c-0.07586,0.1475 -0.17805,0.25917 -0.30658,0.33503c-0.12853,0.07586 -0.27498,0.11378 -0.43933,0.11378h-0.29078c-0.16435,0 -0.3108,-0.03793 -0.43933,-0.11378c-0.12853,-0.07586 -0.23073,-0.18753 -0.30658,-0.33503l-2.45268,-4.741c0.01686,0.1475 0.0295,0.29394 0.03793,0.43933c0.00843,0.14539 0.01264,0.27919 0.01264,0.4014v5.29728h-1.88376v-9.21018h1.6309c0.09271,0 0.17384,0.00211 0.24337,0.00632c0.06953,0.00421 0.13169,0.01686 0.18648,0.03793c0.05478,0.02107 0.1043,0.05373 0.14855,0.09798c0.04425,0.04425 0.08745,0.10641 0.12959,0.18648z" data-paper-data="{&quot;glyphName&quot;:&quot;M&quot;,&quot;glyphIndex&quot;:1,&quot;word&quot;:1}"></path><path d="M224.17649,280.67986h-1.65619c-0.18543,0 -0.33819,-0.0432 -0.4583,-0.12959c-0.12011,-0.08639 -0.20334,-0.19701 -0.24969,-0.33187l-0.54363,-1.60562h-3.50202l-0.54363,1.60562c-0.04214,0.118 -0.12432,0.22441 -0.24653,0.31923c-0.12221,0.09482 -0.27182,0.14223 -0.44881,0.14223h-1.66883l3.56523,-9.21018h2.18718zM218.25972,277.15888h2.51589l-0.84706,-2.52221c-0.05478,-0.16014 -0.11905,-0.34873 -0.1928,-0.56576c-0.07375,-0.21703 -0.14644,-0.45198 -0.21809,-0.70483c-0.06743,0.25707 -0.13696,0.49517 -0.2086,0.71431c-0.07164,0.21914 -0.13907,0.40878 -0.20228,0.56892z" data-paper-data="{&quot;glyphName&quot;:&quot;A&quot;,&quot;glyphIndex&quot;:2,&quot;word&quot;:1}"></path><path d="M231.71818,279.13746c0.295,0 0.55628,-0.02529 0.78385,-0.07586c0.22757,-0.05057 0.44249,-0.118 0.64478,-0.20228v-1.39702h-0.91027c-0.13486,0 -0.24021,-0.03582 -0.31607,-0.10746c-0.07586,-0.07164 -0.11378,-0.16225 -0.11378,-0.27182v-1.17577h3.27445v3.88762c-0.236,0.17278 -0.48148,0.32133 -0.73644,0.44565c-0.25496,0.12432 -0.52678,0.22651 -0.81545,0.30658c-0.28867,0.08007 -0.59631,0.13907 -0.92291,0.177c-0.3266,0.03793 -0.67744,0.05689 -1.0525,0.05689c-0.67428,0 -1.29798,-0.11905 -1.87112,-0.35716c-0.57313,-0.2381 -1.06936,-0.56681 -1.48867,-0.98613c-0.41932,-0.41932 -0.74802,-0.91659 -0.98613,-1.49184c-0.2381,-0.57524 -0.35716,-1.2 -0.35716,-1.87428c0,-0.68692 0.11378,-1.318 0.34135,-1.89324c0.22757,-0.57524 0.55312,-1.07147 0.97665,-1.48867c0.42353,-0.41721 0.93556,-0.7417 1.53608,-0.97349c0.60053,-0.23178 1.27164,-0.34767 2.01335,-0.34767c0.38349,0 0.74381,0.03161 1.08095,0.09482c0.33714,0.06321 0.64794,0.1496 0.9324,0.25917c0.28446,0.10957 0.54469,0.24021 0.78068,0.39192c0.236,0.15171 0.44671,0.31607 0.63213,0.49306l-0.61949,0.94188c-0.059,0.0885 -0.12959,0.15803 -0.21176,0.2086c-0.08218,0.05057 -0.17173,0.07586 -0.26866,0.07586c-0.12643,0 -0.25707,-0.04214 -0.39192,-0.12643c-0.16857,-0.10114 -0.32766,-0.18859 -0.47726,-0.26234c-0.1496,-0.07375 -0.30237,-0.1338 -0.4583,-0.18016c-0.15593,-0.04636 -0.32028,-0.08007 -0.49306,-0.10114c-0.17278,-0.02107 -0.36664,-0.03161 -0.58156,-0.03161c-0.40035,0 -0.76067,0.07059 -1.08095,0.21176c-0.32028,0.14118 -0.59315,0.3403 -0.81861,0.59737c-0.22546,0.25707 -0.3993,0.56576 -0.52151,0.92608c-0.12221,0.36032 -0.18332,0.76172 -0.18332,1.20421c0,0.48885 0.06743,0.92291 0.20228,1.30219c0.13486,0.37928 0.32133,0.69956 0.55944,0.96084c0.2381,0.26128 0.52046,0.4604 0.84706,0.59737c0.3266,0.13696 0.68376,0.20544 1.07147,0.20544z" data-paper-data="{&quot;glyphName&quot;:&quot;G&quot;,&quot;glyphIndex&quot;:3,&quot;word&quot;:1}"></path><path d="M241.52468,280.67986h-2.14925v-9.21018h2.14925z" data-paper-data="{&quot;glyphName&quot;:&quot;I&quot;,&quot;glyphIndex&quot;:4,&quot;word&quot;:1}"></path><path d="M247.16185,271.46968c0.09271,0 0.17068,0.00421 0.23389,0.01264c0.06321,0.00843 0.12011,0.02423 0.17068,0.04741c0.05057,0.02318 0.09903,0.05584 0.14539,0.09798c0.04636,0.04214 0.09903,0.09903 0.15803,0.17068l4.37436,5.53117c-0.01686,-0.177 -0.0295,-0.34873 -0.03793,-0.51519c-0.00843,-0.16646 -0.01264,-0.32344 -0.01264,-0.47094v-4.87375h1.88376v9.21018h-1.11255c-0.16435,0 -0.30342,-0.02529 -0.41721,-0.07586c-0.11378,-0.05057 -0.22335,-0.14328 -0.32871,-0.27814l-4.34276,-5.48692c0.01264,0.16014 0.02318,0.31712 0.03161,0.47094c0.00843,0.15382 0.01264,0.29816 0.01264,0.43301v4.93696h-1.88376v-9.21018z" data-paper-data="{&quot;glyphName&quot;:&quot;N&quot;,&quot;glyphIndex&quot;:5,&quot;word&quot;:1}"></path><path d="M264.36002,271.46968v1.64355h-3.78016v2.14925h2.89517v1.58033h-2.89517v2.1935h3.78016v1.64355h-5.92941v-9.21018z" data-paper-data="{&quot;glyphName&quot;:&quot;E&quot;,&quot;glyphIndex&quot;:6,&quot;lastGlyphOfWord&quot;:true,&quot;word&quot;:1}"></path><path d="M275.8592,280.67986h-2.14925v-9.21018h2.14925z" data-paper-data="{&quot;glyphName&quot;:&quot;I&quot;,&quot;glyphIndex&quot;:7,&quot;firstGlyphOfWord&quot;:true,&quot;word&quot;:2}"></path><path d="M281.49638,271.46968c0.09271,0 0.17068,0.00421 0.23389,0.01264c0.06321,0.00843 0.12011,0.02423 0.17068,0.04741c0.05057,0.02318 0.09903,0.05584 0.14539,0.09798c0.04636,0.04214 0.09903,0.09903 0.15803,0.17068l4.37436,5.53117c-0.01686,-0.177 -0.0295,-0.34873 -0.03793,-0.51519c-0.00843,-0.16646 -0.01264,-0.32344 -0.01264,-0.47094v-4.87375h1.88376v9.21018h-1.11255c-0.16435,0 -0.30342,-0.02529 -0.41721,-0.07586c-0.11378,-0.05057 -0.22335,-0.14328 -0.32871,-0.27814l-4.34276,-5.48692c0.01264,0.16014 0.02318,0.31712 0.03161,0.47094c0.00843,0.15382 0.01264,0.29816 0.01264,0.43301v4.93696h-1.88376v-9.21018z" data-paper-data="{&quot;glyphName&quot;:&quot;N&quot;,&quot;glyphIndex&quot;:8,&quot;word&quot;:2}"></path><path d="M297.89071,273.34079c-0.06321,0.10114 -0.12959,0.177 -0.19912,0.22757c-0.06953,0.05057 -0.15909,0.07586 -0.26866,0.07586c-0.09693,0 -0.20123,-0.03055 -0.31291,-0.09166c-0.11168,-0.06111 -0.2381,-0.12959 -0.37928,-0.20544c-0.14118,-0.07586 -0.30237,-0.14434 -0.48358,-0.20544c-0.18121,-0.06111 -0.38771,-0.09166 -0.61949,-0.09166c-0.40035,0 -0.69851,0.08534 -0.89447,0.25601c-0.19596,0.17068 -0.29394,0.4014 -0.29394,0.69219c0,0.18543 0.059,0.33924 0.177,0.46146c0.118,0.12221 0.27287,0.22757 0.46462,0.31607c0.19175,0.0885 0.41089,0.16962 0.65742,0.24337c0.24653,0.07375 0.49833,0.15593 0.7554,0.24653c0.25707,0.09061 0.50887,0.19701 0.7554,0.31923c0.24653,0.12221 0.46567,0.27814 0.65742,0.46778c0.19175,0.18964 0.34662,0.42037 0.46462,0.69219c0.118,0.27182 0.177,0.59947 0.177,0.98297c0,0.42564 -0.07375,0.82388 -0.22125,1.19473c-0.1475,0.37085 -0.36137,0.69429 -0.64162,0.97032c-0.28025,0.27603 -0.62581,0.49306 -1.0367,0.6511c-0.41089,0.15803 -0.87761,0.23705 -1.40018,0.23705c-0.28657,0 -0.5784,-0.0295 -0.8755,-0.0885c-0.2971,-0.059 -0.58472,-0.14223 -0.86286,-0.24969c-0.27814,-0.10746 -0.53942,-0.23494 -0.78385,-0.38244c-0.24442,-0.1475 -0.45724,-0.31185 -0.63845,-0.49306l0.63213,-0.99877c0.04636,-0.07586 0.11168,-0.13696 0.19596,-0.18332c0.08428,-0.04636 0.17489,-0.06953 0.27182,-0.06953c0.12643,0 0.25391,0.04004 0.38244,0.12011c0.12853,0.08007 0.27392,0.16857 0.43617,0.2655c0.16225,0.09693 0.34873,0.18543 0.55944,0.2655c0.21071,0.08007 0.45935,0.12011 0.74592,0.12011c0.38771,0 0.68903,-0.08534 0.90395,-0.25601c0.21493,-0.17068 0.32239,-0.44144 0.32239,-0.81229c0,-0.21493 -0.059,-0.38982 -0.177,-0.52467c-0.118,-0.13486 -0.27287,-0.24653 -0.46462,-0.33503c-0.19175,-0.0885 -0.40983,-0.16646 -0.65426,-0.23389c-0.24442,-0.06743 -0.49517,-0.14223 -0.75224,-0.22441c-0.25707,-0.08218 -0.50781,-0.18332 -0.75224,-0.30342c-0.24442,-0.12011 -0.46251,-0.27814 -0.65426,-0.4741c-0.19175,-0.19596 -0.34662,-0.44039 -0.46462,-0.73327c-0.118,-0.29289 -0.177,-0.65426 -0.177,-1.08411c0,-0.34557 0.06953,-0.6827 0.2086,-1.01141c0.13907,-0.32871 0.34346,-0.6216 0.61317,-0.87867c0.26971,-0.25707 0.60053,-0.46251 0.99245,-0.61633c0.39192,-0.15382 0.84074,-0.23073 1.34644,-0.23073c0.28235,0 0.55733,0.02212 0.82493,0.06637c0.2676,0.04425 0.52151,0.10957 0.76172,0.19596c0.24021,0.08639 0.46462,0.18964 0.67322,0.30975c0.2086,0.12011 0.39508,0.25601 0.55944,0.40773z" data-paper-data="{&quot;glyphName&quot;:&quot;S&quot;,&quot;glyphIndex&quot;:9,&quot;word&quot;:2}"></path><path d="M304.5695,277.60137v3.07849h-2.13661v-9.21018h3.24917c0.64899,0 1.20632,0.07691 1.67199,0.23073c0.46567,0.15382 0.84917,0.36558 1.15048,0.63529c0.30132,0.26971 0.52362,0.58788 0.6669,0.95452c0.14328,0.36664 0.21493,0.76277 0.21493,1.18841c0,0.45935 -0.07375,0.88077 -0.22125,1.26427c-0.1475,0.38349 -0.37296,0.7122 -0.67638,0.98613c-0.30342,0.27392 -0.68797,0.4878 -1.15364,0.64162c-0.46567,0.15382 -1.01668,0.23073 -1.65303,0.23073zM304.5695,275.98943h1.11255c0.55628,0 0.95663,-0.13275 1.20105,-0.39824c0.24442,-0.2655 0.36664,-0.63635 0.36664,-1.11255c0,-0.21071 -0.03161,-0.40246 -0.09482,-0.57524c-0.06321,-0.17278 -0.15909,-0.32133 -0.28762,-0.44565c-0.12853,-0.12432 -0.29078,-0.22019 -0.48674,-0.28762c-0.19596,-0.06743 -0.4288,-0.10114 -0.69851,-0.10114h-1.11255z" data-paper-data="{&quot;glyphName&quot;:&quot;P&quot;,&quot;glyphIndex&quot;:10,&quot;word&quot;:2}"></path><path d="M315.6258,280.67986h-2.14925v-9.21018h2.14925z" data-paper-data="{&quot;glyphName&quot;:&quot;I&quot;,&quot;glyphIndex&quot;:11,&quot;word&quot;:2}"></path><path d="M322.2698,277.27266v3.4072h-2.13661v-9.21018h2.99631c0.66585,0 1.23371,0.06848 1.7036,0.20544c0.46989,0.13696 0.85338,0.32766 1.15048,0.57208c0.2971,0.24442 0.51308,0.5331 0.64794,0.86602c0.13486,0.33292 0.20228,0.69535 0.20228,1.08727c0,0.29921 -0.04004,0.58156 -0.12011,0.84706c-0.08007,0.2655 -0.19912,0.51097 -0.35716,0.73644c-0.15803,0.22546 -0.35189,0.42669 -0.58156,0.60369c-0.22968,0.177 -0.49412,0.32239 -0.79333,0.43617c0.14328,0.07164 0.27709,0.16014 0.4014,0.2655c0.12432,0.10536 0.23284,0.23389 0.32555,0.3856l1.95961,3.20492h-1.93433c-0.35821,0 -0.61528,-0.13486 -0.7712,-0.40457l-1.52976,-2.67392c-0.06743,-0.118 -0.14644,-0.20228 -0.23705,-0.25285c-0.09061,-0.05057 -0.21809,-0.07586 -0.38244,-0.07586zM322.2698,275.79979h0.8597c0.29078,0 0.53837,-0.03687 0.74276,-0.11062c0.20439,-0.07375 0.37191,-0.17594 0.50255,-0.30658c0.13064,-0.13064 0.22546,-0.28341 0.28446,-0.4583c0.059,-0.17489 0.0885,-0.36348 0.0885,-0.56576c0,-0.40457 -0.13169,-0.72063 -0.39508,-0.9482c-0.26339,-0.22757 -0.67112,-0.34135 -1.22318,-0.34135h-0.8597z" data-paper-data="{&quot;glyphName&quot;:&quot;R&quot;,&quot;glyphIndex&quot;:12,&quot;word&quot;:2}"></path><path d="M337.28977,271.46968v1.64355h-3.78016v2.14925h2.89517v1.58033h-2.89517v2.1935h3.78016v1.64355h-5.92941v-9.21018z" data-paper-data="{&quot;glyphName&quot;:&quot;E&quot;,&quot;glyphIndex&quot;:13,&quot;lastGlyphOfWord&quot;:true,&quot;word&quot;:2}"></path><path d="M348.78895,280.67986h-2.14925v-9.21018h2.14925z" data-paper-data="{&quot;glyphName&quot;:&quot;I&quot;,&quot;glyphIndex&quot;:14,&quot;firstGlyphOfWord&quot;:true,&quot;word&quot;:3}"></path><path d="M358.03133,276.46985c0.08428,0.16014 0.16541,0.3266 0.24337,0.49939c0.07796,0.17278 0.15277,0.34978 0.22441,0.53099c0.07164,-0.18543 0.1475,-0.36558 0.22757,-0.54047c0.08007,-0.17489 0.16225,-0.34451 0.24653,-0.50887l2.36418,-4.6525c0.04214,-0.08007 0.08534,-0.14223 0.12959,-0.18648c0.04425,-0.04425 0.09377,-0.07691 0.14855,-0.09798c0.05478,-0.02107 0.11694,-0.03371 0.18648,-0.03793c0.06953,-0.00421 0.15066,-0.00632 0.24337,-0.00632h1.6309v9.21018h-1.88376v-5.29728c0,-0.25707 0.01264,-0.53521 0.03793,-0.83442l-2.44004,4.73468c-0.07586,0.1475 -0.17805,0.25917 -0.30658,0.33503c-0.12853,0.07586 -0.27498,0.11378 -0.43933,0.11378h-0.29078c-0.16435,0 -0.3108,-0.03793 -0.43933,-0.11378c-0.12853,-0.07586 -0.23073,-0.18753 -0.30658,-0.33503l-2.45268,-4.741c0.01686,0.1475 0.0295,0.29394 0.03793,0.43933c0.00843,0.14539 0.01264,0.27919 0.01264,0.4014v5.29728h-1.88376v-9.21018h1.6309c0.09271,0 0.17384,0.00211 0.24337,0.00632c0.06953,0.00421 0.13169,0.01686 0.18648,0.03793c0.05478,0.02107 0.1043,0.05373 0.14855,0.09798c0.04425,0.04425 0.08745,0.10641 0.12959,0.18648z" data-paper-data="{&quot;glyphName&quot;:&quot;M&quot;,&quot;glyphIndex&quot;:15,&quot;word&quot;:3}"></path><path d="M370.19641,277.60137v3.07849h-2.13661v-9.21018h3.24917c0.64899,0 1.20632,0.07691 1.67199,0.23073c0.46567,0.15382 0.84917,0.36558 1.15048,0.63529c0.30132,0.26971 0.52362,0.58788 0.6669,0.95452c0.14328,0.36664 0.21493,0.76277 0.21493,1.18841c0,0.45935 -0.07375,0.88077 -0.22125,1.26427c-0.1475,0.38349 -0.37296,0.7122 -0.67638,0.98613c-0.30342,0.27392 -0.68797,0.4878 -1.15364,0.64162c-0.46567,0.15382 -1.01668,0.23073 -1.65303,0.23073zM370.19641,275.98943h1.11255c0.55628,0 0.95663,-0.13275 1.20105,-0.39824c0.24442,-0.2655 0.36664,-0.63635 0.36664,-1.11255c0,-0.21071 -0.03161,-0.40246 -0.09482,-0.57524c-0.06321,-0.17278 -0.15909,-0.32133 -0.28762,-0.44565c-0.12853,-0.12432 -0.29078,-0.22019 -0.48674,-0.28762c-0.19596,-0.06743 -0.4288,-0.10114 -0.69851,-0.10114h-1.11255z" data-paper-data="{&quot;glyphName&quot;:&quot;P&quot;,&quot;glyphIndex&quot;:16,&quot;word&quot;:3}"></path><path d="M381.07786,278.9731h3.41352v1.70676h-5.55013v-9.21018h2.13661z" data-paper-data="{&quot;glyphName&quot;:&quot;L&quot;,&quot;glyphIndex&quot;:17,&quot;word&quot;:3}"></path><path d="M394.2365,271.46968v1.64355h-3.78016v2.14925h2.89517v1.58033h-2.89517v2.1935h3.78016v1.64355h-5.92941v-9.21018z" data-paper-data="{&quot;glyphName&quot;:&quot;E&quot;,&quot;glyphIndex&quot;:18,&quot;word&quot;:3}"></path><path d="M403.01118,276.46985c0.08428,0.16014 0.16541,0.3266 0.24337,0.49939c0.07796,0.17278 0.15277,0.34978 0.22441,0.53099c0.07164,-0.18543 0.1475,-0.36558 0.22757,-0.54047c0.08007,-0.17489 0.16225,-0.34451 0.24653,-0.50887l2.36418,-4.6525c0.04214,-0.08007 0.08534,-0.14223 0.12959,-0.18648c0.04425,-0.04425 0.09377,-0.07691 0.14855,-0.09798c0.05478,-0.02107 0.11694,-0.03371 0.18648,-0.03793c0.06953,-0.00421 0.15066,-0.00632 0.24337,-0.00632h1.6309v9.21018h-1.88376v-5.29728c0,-0.25707 0.01264,-0.53521 0.03793,-0.83442l-2.44004,4.73468c-0.07586,0.1475 -0.17805,0.25917 -0.30658,0.33503c-0.12853,0.07586 -0.27498,0.11378 -0.43933,0.11378h-0.29078c-0.16435,0 -0.3108,-0.03793 -0.43933,-0.11378c-0.12853,-0.07586 -0.23073,-0.18753 -0.30658,-0.33503l-2.45268,-4.741c0.01686,0.1475 0.0295,0.29394 0.03793,0.43933c0.00843,0.14539 0.01264,0.27919 0.01264,0.4014v5.29728h-1.88376v-9.21018h1.6309c0.09271,0 0.17384,0.00211 0.24337,0.00632c0.06953,0.00421 0.13169,0.01686 0.18648,0.03793c0.05478,0.02107 0.1043,0.05373 0.14855,0.09798c0.04425,0.04425 0.08745,0.10641 0.12959,0.18648z" data-paper-data="{&quot;glyphName&quot;:&quot;M&quot;,&quot;glyphIndex&quot;:19,&quot;word&quot;:3}"></path><path d="M418.95976,271.46968v1.64355h-3.78016v2.14925h2.89517v1.58033h-2.89517v2.1935h3.78016v1.64355h-5.92941v-9.21018z" data-paper-data="{&quot;glyphName&quot;:&quot;E&quot;,&quot;glyphIndex&quot;:20,&quot;word&quot;:3}"></path><path d="M424.12924,271.46968c0.09271,0 0.17068,0.00421 0.23389,0.01264c0.06321,0.00843 0.12011,0.02423 0.17068,0.04741c0.05057,0.02318 0.09903,0.05584 0.14539,0.09798c0.04636,0.04214 0.09903,0.09903 0.15803,0.17068l4.37436,5.53117c-0.01686,-0.177 -0.0295,-0.34873 -0.03793,-0.51519c-0.00843,-0.16646 -0.01264,-0.32344 -0.01264,-0.47094v-4.87375h1.88376v9.21018h-1.11255c-0.16435,0 -0.30342,-0.02529 -0.41721,-0.07586c-0.11378,-0.05057 -0.22335,-0.14328 -0.32871,-0.27814l-4.34276,-5.48692c0.01264,0.16014 0.02318,0.31712 0.03161,0.47094c0.00843,0.15382 0.01264,0.29816 0.01264,0.43301v4.93696h-1.88376v-9.21018z" data-paper-data="{&quot;glyphName&quot;:&quot;N&quot;,&quot;glyphIndex&quot;:21,&quot;word&quot;:3}"></path><path d="M442.08711,271.46968v1.69412h-2.59175v7.51607h-2.13661v-7.51607h-2.59175v-1.69412z" data-paper-data="{&quot;glyphName&quot;:&quot;T&quot;,&quot;glyphIndex&quot;:22,&quot;lastGlyphOfWord&quot;:true,&quot;word&quot;:3}"></path></g><g data-paper-data="{&quot;stacked&quot;:true,&quot;isPrimaryText&quot;:true}" fill-rule="nonzero"><path d="M194.17674,232.02115h9.25452l14.63371,-26.2597l14.69155,26.2597h9.25452l-23.94607,-42.80215zM218.06497,232.02115c1.79306,0 3.29692,-1.50386 3.29692,-3.29692c0,-1.8509 -1.50386,-3.29692 -3.29692,-3.29692c-1.79306,0 -3.29692,1.44602 -3.29692,3.29692c0,1.79306 1.50386,3.29692 3.29692,3.29692z" data-paper-data="{&quot;glyphName&quot;:&quot;A&quot;,&quot;glyphIndex&quot;:0,&quot;firstGlyphOfWord&quot;:true,&quot;word&quot;:1,&quot;line&quot;:1,&quot;firstGlyphOfFirstLine&quot;:true}"></path><path d="M275.55867,191.53263v25.91265l-29.49878,-27.18515v41.76102h7.98202v-24.64016l29.55662,26.60674v-42.45511z" data-paper-data="{&quot;glyphName&quot;:&quot;N&quot;,&quot;glyphIndex&quot;:1,&quot;word&quot;:1,&quot;line&quot;:1}"></path><path d="M290.13454,232.02115h9.25452l14.63371,-26.2597l14.69155,26.2597h9.25452l-23.94607,-42.80215zM314.02276,232.02115c1.79306,0 3.29692,-1.50386 3.29692,-3.29692c0,-1.8509 -1.50386,-3.29692 -3.29692,-3.29692c-1.79306,0 -3.29692,1.44602 -3.29692,3.29692c0,1.79306 1.50386,3.29692 3.29692,3.29692z" data-paper-data="{&quot;glyphName&quot;:&quot;A&quot;,&quot;glyphIndex&quot;:2,&quot;word&quot;:1,&quot;line&quot;:1}"></path><path d="M364.57557,231.90546c12.43576,0 22.55789,-9.081 22.55789,-20.24426l-22.78925,0.11568l13.36121,4.04885c-1.5617,4.74294 -6.76737,8.38691 -13.12985,8.38691c-7.98202,0 -14.22882,-5.61055 -14.22882,-12.55144c0,-6.94089 6.2468,-12.4936 14.22882,-12.4936c6.2468,0 11.27894,3.52829 13.41905,8.50259l7.98202,-2.42931c-2.94988,-7.98202 -11.45247,-13.82394 -21.40108,-13.82394c-12.4936,0 -22.61573,9.081 -22.61573,20.24426c0,11.16326 10.12213,20.24426 22.61573,20.24426z" data-paper-data="{&quot;glyphName&quot;:&quot;G&quot;,&quot;glyphIndex&quot;:3,&quot;word&quot;:1,&quot;line&quot;:1}"></path><path d="M403.56023,232.02115v-16.48461h21.51676v16.48461h8.03986v-40.48852h-8.03986v16.94734h-21.51676v-16.94734h-7.98202v40.48852z" data-paper-data="{&quot;glyphName&quot;:&quot;H&quot;,&quot;glyphIndex&quot;:4,&quot;word&quot;:1,&quot;line&quot;:1}"></path><path d="M437.16571,232.02115h9.25452l14.63371,-26.2597l14.69155,26.2597h9.25452l-23.94607,-42.80215zM461.05393,232.02115c1.79306,0 3.29692,-1.50386 3.29692,-3.29692c0,-1.8509 -1.50386,-3.29692 -3.29692,-3.29692c-1.79306,0 -3.29692,1.44602 -3.29692,3.29692c0,1.79306 1.50386,3.29692 3.29692,3.29692z" data-paper-data="{&quot;glyphName&quot;:&quot;A&quot;,&quot;glyphIndex&quot;:5,&quot;lastGlyphOfWord&quot;:true,&quot;word&quot;:1,&quot;line&quot;:1,&quot;lastGlyphOfFirstLine&quot;:true}"></path><path d="M194.17674,262.04072h4.92451l7.78689,-13.9733l7.81766,13.9733h4.92451l-12.74218,-22.77587zM206.88814,262.04072c0.95412,0 1.75436,-0.80023 1.75436,-1.75436c0,-0.9849 -0.80023,-1.75436 -1.75436,-1.75436c-0.95412,0 -1.75436,0.76946 -1.75436,1.75436c0,0.95412 0.80023,1.75436 1.75436,1.75436z" data-paper-data="{&quot;glyphName&quot;:&quot;A&quot;,&quot;glyphIndex&quot;:6,&quot;firstGlyphOfWord&quot;:true,&quot;word&quot;:2,&quot;line&quot;:2,&quot;firstGlyphOfSecondLine&quot;:true}"></path><path d="M233.78829,261.97916c6.61731,0 12.0035,-4.83218 12.0035,-10.77237l-12.12661,0.06156l7.10977,2.15447c-0.83101,2.52381 -3.60105,4.46284 -6.98665,4.46284c-4.24739,0 -7.57144,-2.98549 -7.57144,-6.67887c0,-3.69338 3.32405,-6.64809 7.57144,-6.64809c3.32405,0 6.00175,1.87747 7.14054,4.5244l4.24739,-1.29268c-1.56969,-4.24739 -6.09408,-7.35599 -11.38794,-7.35599c-6.64809,0 -12.03428,4.83218 -12.03428,10.77237c0,5.94019 5.38619,10.77237 12.03428,10.77237z" data-paper-data="{&quot;glyphName&quot;:&quot;G&quot;,&quot;glyphIndex&quot;:7,&quot;word&quot;:2,&quot;line&quot;:2}"></path><path d="M252.59378,262.04072v-21.54474h-4.27817v21.54474z" data-paper-data="{&quot;glyphName&quot;:&quot;I&quot;,&quot;glyphIndex&quot;:8,&quot;word&quot;:2,&quot;line&quot;:2}"></path><path d="M259.30342,258.47045v-17.97447h-4.27817v21.54474h18.7747v-3.57027z" data-paper-data="{&quot;glyphName&quot;:&quot;L&quot;,&quot;glyphIndex&quot;:9,&quot;word&quot;:2,&quot;line&quot;:2}"></path><path d="M277.09323,240.49597v21.54474h19.97505v-3.57027h-15.72766v-5.90942h13.72708v-3.13938h-13.72708v-5.35541l15.72766,-0.03078v-3.53949z" data-paper-data="{&quot;glyphName&quot;:&quot;E&quot;,&quot;glyphIndex&quot;:10,&quot;lastGlyphOfWord&quot;:true,&quot;word&quot;:2,&quot;line&quot;:2}"></path><path d="M315.07353,247.35951c0,3.90883 4.30895,5.44774 7.63299,5.44774h5.72475c2.49303,0 4.73984,0.52323 4.73984,2.43148c0,2.52381 -3.75494,3.47794 -6.64809,3.47794c-2.83159,0 -6.43264,-1.20035 -6.46342,-3.72416h-4.98607c0,5.54008 7.04821,7.01743 11.69572,7.01743c4.49362,0 11.35716,-1.47735 11.35716,-6.80198c0,-4.15506 -4.12428,-5.57086 -7.63299,-5.57086h-5.69397c-1.84669,0 -4.73984,-0.33856 -4.73984,-2.43148c0,-2.33914 3.60105,-3.47794 6.61731,-3.47794c3.01626,0 6.00175,1.13879 6.12486,3.78572h4.73984c0,-4.83218 -5.44774,-7.01743 -10.95704,-7.01743c-4.89373,0 -11.51105,2.03136 -11.51105,6.86354z" data-paper-data="{&quot;glyphName&quot;:&quot;S&quot;,&quot;glyphIndex&quot;:11,&quot;firstGlyphOfWord&quot;:true,&quot;word&quot;:2,&quot;line&quot;:2}"></path><path d="M348.1601,254.74628v7.29443h4.58595v-7.38677l7.91,-14.15797h-4.89373l-5.32463,9.54124l-5.35541,-9.54124h-4.89373z" data-paper-data="{&quot;glyphName&quot;:&quot;Y&quot;,&quot;glyphIndex&quot;:12,&quot;word&quot;:2,&quot;line&quot;:2}"></path><path d="M360.56372,247.35951c0,3.90883 4.30895,5.44774 7.63299,5.44774h5.72475c2.49303,0 4.73984,0.52323 4.73984,2.43148c0,2.52381 -3.75494,3.47794 -6.64809,3.47794c-2.83159,0 -6.43264,-1.20035 -6.46342,-3.72416h-4.98607c0,5.54008 7.04821,7.01743 11.69572,7.01743c4.49362,0 11.35716,-1.47735 11.35716,-6.80198c0,-4.15506 -4.12428,-5.57086 -7.63299,-5.57086h-5.69397c-1.84669,0 -4.73984,-0.33856 -4.73984,-2.43148c0,-2.33914 3.60105,-3.47794 6.61731,-3.47794c3.01626,0 6.00175,1.13879 6.12486,3.78572h4.73984c0,-4.83218 -5.44774,-7.01743 -10.95704,-7.01743c-4.89373,0 -11.51105,2.03136 -11.51105,6.86354z" data-paper-data="{&quot;glyphName&quot;:&quot;S&quot;,&quot;glyphIndex&quot;:13,&quot;word&quot;:2,&quot;line&quot;:2}"></path><path d="M385.67873,240.49597v3.53949h7.87922v18.03603h4.24739v-18.03603h7.84844v-3.53949z" data-paper-data="{&quot;glyphName&quot;:&quot;T&quot;,&quot;glyphIndex&quot;:14,&quot;word&quot;:2,&quot;line&quot;:2}"></path><path d="M409.90118,240.49597v21.54474h19.97505v-3.57027h-15.72766v-5.90942h13.72708v-3.13938h-13.72708v-5.35541l15.72766,-0.03078v-3.53949z" data-paper-data="{&quot;glyphName&quot;:&quot;E&quot;,&quot;glyphIndex&quot;:15,&quot;word&quot;:2,&quot;line&quot;:2}"></path><path d="M432.36927,262.04072h4.27817l2.80082,-12.12661l6.55576,12.12661l6.58654,-12.12661l2.80082,12.12661h4.27817l-5.10918,-21.54474l-8.55634,15.01976l-8.52556,-15.01976z" data-paper-data="{&quot;glyphName&quot;:&quot;M&quot;,&quot;glyphIndex&quot;:16,&quot;word&quot;:2,&quot;line&quot;:2}"></path><path d="M461.94712,247.35951c0,3.90883 4.30895,5.44774 7.63299,5.44774h5.72475c2.49303,0 4.73984,0.52323 4.73984,2.43148c0,2.52381 -3.75494,3.47794 -6.64809,3.47794c-2.83159,0 -6.43264,-1.20035 -6.46342,-3.72416h-4.98607c0,5.54008 7.04821,7.01743 11.69572,7.01743c4.49362,0 11.35716,-1.47735 11.35716,-6.80198c0,-4.15506 -4.12428,-5.57086 -7.63299,-5.57086h-5.69397c-1.84669,0 -4.73984,-0.33856 -4.73984,-2.43148c0,-2.33914 3.60105,-3.47794 6.61731,-3.47794c3.01626,0 6.00175,1.13879 6.12486,3.78572h4.73984c0,-4.83218 -5.44774,-7.01743 -10.95704,-7.01743c-4.89373,0 -11.51105,2.03136 -11.51105,6.86354z" data-paper-data="{&quot;glyphName&quot;:&quot;S&quot;,&quot;glyphIndex&quot;:17,&quot;lastGlyphOfWord&quot;:true,&quot;word&quot;:2,&quot;line&quot;:2,&quot;lastGlyphOfSecondLine&quot;:true}"></path></g><g data-paper-data="{&quot;fillRule&quot;:&quot;evenodd&quot;,&quot;fillRuleOriginal&quot;:&quot;evenodd&quot;,&quot;isIcon&quot;:true,&quot;iconStyle&quot;:&quot;standalone&quot;,&quot;selectedEffects&quot;:{&quot;container&quot;:&quot;&quot;,&quot;transformation&quot;:&quot;&quot;,&quot;pattern&quot;:&quot;&quot;},&quot;bounds&quot;:{&quot;x&quot;:65.00000000000003,&quot;y&quot;:177.92634871828722,&quot;width&quot;:100.23102846404052,&quot;height&quot;:114.14730256342563},&quot;iconType&quot;:&quot;icon&quot;,&quot;rawIconId&quot;:&quot;984453&quot;,&quot;isDetailed&quot;:false,&quot;suitableAsStandaloneIcon&quot;:true}" fill-rule="evenodd"><path d="M65.40774,227.05459l48.72048,-48.72053c0.06459,-0.06464 0.13489,-0.12235 0.21089,-0.17313c0.076,-0.05077 0.15623,-0.09365 0.24069,-0.12863c0.08445,-0.03497 0.1715,-0.06138 0.26115,-0.07922c0.08965,-0.01783 0.18018,-0.02674 0.27158,-0.02674c0.09141,0 0.18194,0.00891 0.27158,0.02674c0.08965,0.01784 0.17669,0.04424 0.26115,0.07922c0.08445,0.03497 0.16463,0.07785 0.24054,0.12863c0.076,0.05078 0.14635,0.10849 0.21104,0.17313l48.72242,48.72248c0.06468,0.06459 0.12241,0.13489 0.17317,0.21089c0.05076,0.076 0.09364,0.15623 0.12863,0.24069c0.03499,0.08445 0.06139,0.1715 0.07921,0.26115c0.01782,0.08965 0.02673,0.18018 0.02673,0.27158c0,0.09141 -0.00891,0.18194 -0.02673,0.27158c-0.01782,0.08965 -0.04422,0.17669 -0.07921,0.26115c-0.03499,0.08445 -0.07786,0.16468 -0.12863,0.24069c-0.05076,0.076 -0.10849,0.1463 -0.17317,0.21089l-5.97325,5.97339l5.97729,5.97729c0.13057,0.13057 0.23117,0.2811 0.30179,0.45158c0.07062,0.17057 0.10593,0.34815 0.10593,0.53274c0,0.18458 -0.03531,0.36216 -0.10593,0.53274c-0.07071,0.17057 -0.17131,0.3211 -0.30179,0.45158l-48.72285,48.72145c-0.06468,0.06468 -0.13503,0.12241 -0.21104,0.17317c-0.076,0.05076 -0.15623,0.09364 -0.24069,0.12863c-0.08445,0.03499 -0.1715,0.06139 -0.26115,0.07921c-0.08955,0.01782 -0.18004,0.02673 -0.27145,0.02673c-0.09141,0 -0.18194,-0.00891 -0.27158,-0.02673c-0.08965,-0.01782 -0.17669,-0.04422 -0.26115,-0.07921c-0.08445,-0.03499 -0.16468,-0.07791 -0.24069,-0.12876c-0.076,-0.05076 -0.1463,-0.10844 -0.21089,-0.17303l-48.71741,-48.72159c-0.06468,-0.06468 -0.12241,-0.13503 -0.17317,-0.21104c-0.05076,-0.076 -0.09364,-0.15623 -0.12863,-0.24069c-0.03489,-0.08445 -0.06125,-0.1715 -0.07907,-0.26115c-0.01782,-0.08965 -0.02673,-0.18018 -0.02673,-0.27158c0,-0.09141 0.00895,-0.18194 0.02686,-0.27158c0.01782,-0.08965 0.04422,-0.17669 0.07921,-0.26115c0.03499,-0.08445 0.07786,-0.16463 0.12863,-0.24054c0.05086,-0.076 0.10858,-0.1463 0.17317,-0.21089l5.97394,-5.97158l-5.98091,-5.98091c-0.06468,-0.06468 -0.12241,-0.13498 -0.17317,-0.21089c-0.05076,-0.076 -0.09364,-0.15623 -0.12863,-0.24069c-0.03499,-0.08445 -0.06139,-0.1715 -0.07921,-0.26115c-0.01782,-0.08965 -0.02673,-0.18018 -0.02673,-0.27158c0,-0.09141 0.00891,-0.18194 0.02673,-0.27158c0.01782,-0.08965 0.04422,-0.17669 0.07921,-0.26115c0.03499,-0.08445 0.07786,-0.16468 0.12863,-0.24069c0.05076,-0.076 0.10849,-0.1463 0.17317,-0.21089zM161.86633,228.04086l-46.75101,46.75101l-17.77679,-17.77511l-28.97785,-28.97785l46.75185,-46.75185zM116.10046,262.98291c-0.06468,0.06468 -0.13503,0.12241 -0.21104,0.17317c-0.076,0.05076 -0.15623,0.09364 -0.24069,0.12863c-0.08445,0.03499 -0.1715,0.06139 -0.26115,0.07921c-0.08955,0.01782 -0.18004,0.02673 -0.27145,0.02673c-0.09141,0 -0.18194,-0.00891 -0.27158,-0.02673c-0.08965,-0.01782 -0.17669,-0.04422 -0.26115,-0.07921c-0.08445,-0.03499 -0.16468,-0.07791 -0.24069,-0.12876c-0.076,-0.05076 -0.1463,-0.10844 -0.21089,-0.17303l-33.95328,-33.95607c-0.06468,-0.06468 -0.12241,-0.13503 -0.17317,-0.21104c-0.05076,-0.07591 -0.09364,-0.1561 -0.12863,-0.24054c-0.03499,-0.08445 -0.06139,-0.1715 -0.07921,-0.26115c-0.01782,-0.08965 -0.02673,-0.18018 -0.02673,-0.27158c0,-0.09141 0.00891,-0.18194 0.02673,-0.27158c0.01782,-0.08965 0.04422,-0.17669 0.07921,-0.26115c0.03499,-0.08445 0.07786,-0.16463 0.12863,-0.24054c0.05076,-0.076 0.10849,-0.14635 0.17317,-0.21104l33.95467,-33.95746v0c0.13057,-0.13057 0.28114,-0.23117 0.45172,-0.30179c0.17048,-0.07062 0.34801,-0.10593 0.53259,-0.10593c0.18468,0 0.36226,0.03531 0.53274,0.10593c0.17057,0.07071 0.3211,0.17131 0.45158,0.30179l33.95607,33.95885c0.06468,0.06468 0.12241,0.13503 0.17317,0.21104c0.05076,0.076 0.09364,0.15623 0.12863,0.24069c0.03499,0.08436 0.06139,0.17136 0.07921,0.26101c0.01782,0.08965 0.02673,0.18018 0.02673,0.27158c0,0.09141 -0.00891,0.18194 -0.02673,0.27158c-0.01782,0.08965 -0.04422,0.17669 -0.07921,0.26115c-0.03499,0.08445 -0.07791,0.16468 -0.12876,0.24069c-0.05076,0.076 -0.10844,0.1463 -0.17303,0.21089zM115.11754,210.81922l17.22067,17.22317l-17.22206,17.2208l-17.22067,-17.22067zM120.53217,227.05836l-4.42711,-4.42586c-0.06459,-0.06468 -0.13489,-0.12241 -0.21089,-0.17317c-0.076,-0.05076 -0.15623,-0.09364 -0.24069,-0.12863c-0.08445,-0.03489 -0.1715,-0.06125 -0.26115,-0.07907c-0.08965,-0.01782 -0.18018,-0.02673 -0.27158,-0.02673c-0.09141,0 -0.18194,0.00891 -0.27158,0.02673c-0.08965,0.01791 -0.17669,0.04436 -0.26115,0.07934c-0.08445,0.03499 -0.16468,0.07786 -0.24069,0.12863c-0.076,0.05076 -0.1463,0.10849 -0.21089,0.17317l-4.42488,4.42599c-0.06459,0.06468 -0.12227,0.13503 -0.17303,0.21104c-0.05076,0.076 -0.09364,0.15623 -0.12863,0.24069c-0.03499,0.08445 -0.06139,0.1715 -0.07921,0.26115c-0.01782,0.08965 -0.02668,0.18018 -0.02659,0.27158c0,0.09141 0.00891,0.18194 0.02673,0.27158c0.01782,0.08965 0.04422,0.17669 0.07921,0.26115c0.03499,0.08436 0.07791,0.16454 0.12876,0.24054c0.05076,0.076 0.10844,0.1463 0.17303,0.21089l4.42711,4.42586c0.06468,0.06468 0.13503,0.12241 0.21104,0.17317c0.076,0.05076 0.15623,0.09359 0.24069,0.12848c0.08445,0.03499 0.1715,0.06139 0.26115,0.07921c0.08965,0.01782 0.18018,0.02673 0.27158,0.02673c0.09141,0 0.18189,-0.00891 0.27145,-0.02673c0.08965,-0.01791 0.17669,-0.04436 0.26115,-0.07934c0.08445,-0.03499 0.16468,-0.07786 0.24069,-0.12863c0.076,-0.05076 0.1463,-0.10849 0.21089,-0.17317l4.42488,-4.42599c0.06459,-0.06468 0.12227,-0.13503 0.17303,-0.21104c0.05076,-0.076 0.09364,-0.15623 0.12863,-0.24069c0.03499,-0.08445 0.06139,-0.1715 0.07921,-0.26115c0.01782,-0.08965 0.02673,-0.18018 0.02673,-0.27158c0,-0.09141 -0.00895,-0.18194 -0.02686,-0.27158c-0.01782,-0.08965 -0.04422,-0.17669 -0.07921,-0.26115c-0.03499,-0.08436 -0.07786,-0.16454 -0.12863,-0.24054c-0.05086,-0.076 -0.10858,-0.1463 -0.17317,-0.21089z" data-paper-data="{&quot;isPathIcon&quot;:true}"></path></g></g></g></svg>